<?xml version="1.0" encoding="utf-8"?>
<!-- Generator: Adobe Illustrator 21.0.2, SVG Export Plug-In . SVG Version: 6.00 Build 0)  -->
<svg version="1.1" id="Capa_1" xmlns="http://www.w3.org/2000/svg" xmlns:xlink="http://www.w3.org/1999/xlink" x="0px" y="0px"
	 viewBox="0 0 126 47" style="enable-background:new 0 0 126 47;" xml:space="preserve">
<style type="text/css">
	.st0{filter:url(#Adobe_OpacityMaskFilter);}
	.st1{fill:#FFFFFF;}
	.st2{fill:#FD5B00;}
	.st3{fill:url(#SVGID_1_);}
	.st4{fill:url(#SVGID_2_);}
</style>
<title>Logotipo Original Transparente</title>
<desc>Created with Sketch.</desc>
<g id="Welcome">
	<g id="Desktop-HD" transform="translate(-75.000000, -61.000000)">
		<g id="head" transform="translate(0.000000, -1.000000)">
			<g id="Logotipo-Original-Transparente" transform="translate(72.000000, 62.000000)">
				<g id="Mask">
				</g>
				<defs>
					<filter id="Adobe_OpacityMaskFilter" filterUnits="userSpaceOnUse" x="-32.2" y="-54.2" width="11.3" height="8.6">
						<feColorMatrix  type="matrix" values="1 0 0 0 0  0 1 0 0 0  0 0 1 0 0  0 0 0 1 0"/>
					</filter>
				</defs>
				<mask maskUnits="userSpaceOnUse" x="-32.2" y="-54.2" width="11.3" height="8.6" id="mask-2">
					<g class="st0">
						<rect id="path-1" class="st1" width="139" height="47"/>
					</g>
				</mask>
				<g transform="matrix(3.430749e-03 0 0 3.388863e-03 -32.2027 -54.168)" style="mask:url(#mask-2);enable-background:new    ;">
					
						<image style="overflow:visible;" width="3300" height="2550" xlink:href="7A769064B2B235A.png"  transform="matrix(3.430749e-03 0 0 3.388863e-03 -32.2027 -54.168)">
					</image>
				</g>
			</g>
		</g>
	</g>
</g>
<g>
	<path class="st1" d="M54.1,14.6c2.2,0,3.9,0.6,5.2,1.8c1.3,1.2,1.9,2.8,1.9,5v9.8h-3.9V29c-1.2,1.7-3,2.5-5.2,2.5
		c-1.7,0-3-0.5-4-1.4c-1-0.9-1.5-2.1-1.5-3.6c0-1.9,0.7-3.2,2.2-4c1.5-0.9,3.4-1.3,5.6-1.3c1,0,1.9,0.1,2.7,0.2v-0.2
		c0-1-0.3-1.8-0.9-2.3c-0.6-0.5-1.5-0.8-2.5-0.8c-1.7,0-3.3,0.6-4.9,1.8L47,17.1C48.8,15.4,51.2,14.6,54.1,14.6z M53.2,28.2
		c1.2,0,2.1-0.4,2.8-1.2c0.7-0.8,1.1-1.8,1.2-3.1c-0.8-0.1-1.6-0.1-2.4-0.1c-2.6,0-3.8,0.8-3.8,2.4c0,0.6,0.2,1.1,0.6,1.5
		C52,28,52.5,28.2,53.2,28.2z"/>
	<path class="st1" d="M79.9,15l-5.4,8.2l5.4,8H75l-3.5-5.6l-3.4,5.6h-4.6l5.3-8.2L63.7,15h4.9l3.3,5.7l3.5-5.7H79.9z"/>
	<path class="st1" d="M86.2,12.3c-0.5,0.5-1.1,0.7-1.9,0.7c-0.8,0-1.4-0.2-1.9-0.7c-0.5-0.5-0.7-1.1-0.7-1.9c0-0.8,0.2-1.5,0.7-1.9
		c0.5-0.5,1.1-0.7,1.9-0.7c0.8,0,1.4,0.2,1.9,0.7c0.5,0.5,0.7,1.1,0.7,1.9C86.9,11.2,86.7,11.8,86.2,12.3z M82.1,31.1V15h4.4v16.1
		H82.1z"/>
	<path class="st1" d="M97.6,31.5c-2.5,0-4.5-0.8-5.9-2.3c-1.5-1.5-2.2-3.6-2.2-6.2c0-2.6,0.8-4.6,2.2-6.2c1.5-1.5,3.4-2.3,5.9-2.3
		c2.5,0,4.5,0.8,6,2.3c1.4,1.5,2.2,3.6,2.2,6.2c0,2.6-0.7,4.6-2.2,6.2C102.1,30.8,100.1,31.5,97.6,31.5z M97.6,27.9
		c2.6,0,3.8-1.6,3.8-4.9c0-3.2-1.3-4.9-3.8-4.9c-1.2,0-2.2,0.4-2.8,1.2c-0.7,0.8-1,2-1,3.6C93.8,26.3,95.1,27.9,97.6,27.9z"/>
	<path class="st1" d="M114.2,31.5c-2.8,0-5-0.8-6.7-2.5l1.7-2.8c1.6,1.3,3.2,1.9,4.8,1.9c0.7,0,1.3-0.1,1.8-0.4
		c0.5-0.3,0.7-0.7,0.7-1.2c0-0.2,0-0.3-0.1-0.5c-0.1-0.1-0.2-0.3-0.3-0.4c-0.1-0.1-0.3-0.2-0.4-0.3c-0.1-0.1-0.3-0.2-0.6-0.3
		c-0.3-0.1-0.5-0.2-0.6-0.2c-0.2-0.1-0.4-0.1-0.7-0.2c-0.3-0.1-0.6-0.2-0.7-0.2c-1.5-0.5-2.7-1.1-3.5-1.8c-0.8-0.7-1.2-1.7-1.2-2.9
		c0-1.6,0.6-2.8,1.8-3.7c1.2-0.9,2.8-1.3,4.7-1.3c2.3,0,4.3,0.6,6.1,1.9l-1.7,2.7c-1.5-0.9-2.9-1.4-4.2-1.4c-0.7,0-1.3,0.1-1.7,0.4
		c-0.4,0.3-0.6,0.6-0.6,1c0,0.3,0.2,0.7,0.5,0.9c0.3,0.3,0.6,0.5,0.9,0.5c0.3,0.1,0.8,0.3,1.5,0.5c0.7,0.2,1.3,0.4,1.6,0.5
		c0.4,0.1,0.8,0.3,1.4,0.7c0.6,0.3,1,0.6,1.3,0.9c0.3,0.3,0.6,0.7,0.8,1.2c0.2,0.5,0.4,1.1,0.4,1.7c0,1.6-0.7,2.9-2,3.8
		C117.7,31,116.1,31.5,114.2,31.5z"/>
</g>
<g>
	<path class="st2" d="M76.3,37.9c0.4,0,0.8,0.1,1,0.4s0.4,0.6,0.4,1v2.2h-0.3v-0.8c-0.1,0.3-0.3,0.5-0.5,0.6
		c-0.2,0.2-0.5,0.2-0.8,0.2c-0.3,0-0.6-0.1-0.9-0.3c-0.2-0.2-0.3-0.5-0.3-0.8c0-0.4,0.1-0.7,0.4-0.8s0.7-0.3,1.2-0.3
		c0.3,0,0.6,0,0.8,0.1v-0.1c0-0.4-0.1-0.7-0.3-0.8c-0.2-0.2-0.5-0.3-0.8-0.3c-0.4,0-0.8,0.1-1.1,0.4l-0.2-0.2
		C75.4,38.1,75.8,37.9,76.3,37.9z M76.1,41.3c0.4,0,0.7-0.1,1-0.4c0.2-0.3,0.4-0.6,0.4-1.1v-0.2c-0.3,0-0.5-0.1-0.8-0.1
		c-0.9,0-1.4,0.3-1.4,0.9c0,0.2,0.1,0.4,0.3,0.6C75.6,41.2,75.8,41.3,76.1,41.3z"/>
	<path class="st2" d="M81.3,41.1c0.4,0.1,0.5,0.4,0.5,0.7c0,0.3-0.1,0.6-0.4,0.7c-0.3,0.2-0.7,0.2-1.2,0.2c-0.4,0-0.8-0.1-1.1-0.2
		c-0.3-0.2-0.4-0.4-0.4-0.7c0-0.4,0.2-0.7,0.6-0.9c-0.2-0.1-0.3-0.3-0.3-0.5c0-0.2,0.1-0.4,0.4-0.5c-0.3-0.2-0.5-0.5-0.5-0.9
		c0-0.4,0.1-0.6,0.4-0.8c0.2-0.2,0.6-0.3,1-0.3c0.4,0,0.6,0.1,0.9,0.2c0.2-0.1,0.4-0.2,0.6-0.4l0.2,0.2c-0.1,0.2-0.3,0.3-0.5,0.4
		c0.2,0.2,0.3,0.4,0.3,0.8c0,0.3-0.1,0.6-0.4,0.8c-0.2,0.2-0.6,0.3-1,0.3c-0.2,0-0.5,0-0.7-0.1c-0.2,0.1-0.3,0.2-0.3,0.4
		c0,0.1,0,0.1,0,0.2c0,0,0.1,0.1,0.1,0.1s0.1,0.1,0.1,0.1c0,0,0.1,0,0.2,0.1c0.1,0,0.2,0,0.2,0c0,0,0.1,0,0.3,0c0.1,0,0.2,0,0.3,0
		s0.2,0,0.3,0c0.1,0,0.1,0,0.2,0C81.2,41.1,81.2,41.1,81.3,41.1z M80.2,42.6c0.9,0,1.3-0.2,1.3-0.7c0-0.1,0-0.2-0.1-0.3
		c0-0.1-0.1-0.1-0.2-0.2c-0.1,0-0.2-0.1-0.3-0.1s-0.2-0.1-0.3-0.1c-0.1,0-0.2,0-0.4,0c0,0,0,0-0.1,0c-0.4,0-0.6-0.1-0.7-0.1
		c-0.2,0.1-0.3,0.2-0.4,0.3C79,41.6,79,41.7,79,41.9c0,0.3,0.1,0.4,0.4,0.6C79.6,42.5,79.9,42.6,80.2,42.6z M79.2,39.1
		c0,0.3,0.1,0.5,0.3,0.7c0.2,0.2,0.5,0.2,0.8,0.2c0.3,0,0.6-0.1,0.8-0.2c0.2-0.2,0.3-0.4,0.3-0.7c0-0.3-0.1-0.5-0.3-0.7
		c-0.2-0.2-0.5-0.2-0.8-0.2c-0.3,0-0.6,0.1-0.8,0.2C79.3,38.6,79.2,38.8,79.2,39.1z"/>
	<path class="st2" d="M84.3,41.3c0.5,0,0.9-0.2,1.2-0.5l0.2,0.2c-0.4,0.4-0.9,0.5-1.4,0.5c-0.4,0-0.8-0.2-1.1-0.5
		c-0.3-0.3-0.5-0.7-0.5-1.3c0-0.5,0.2-1,0.5-1.3c0.3-0.4,0.7-0.5,1.3-0.5c0.4,0,0.7,0.1,0.9,0.3s0.4,0.5,0.4,0.8
		c0,0.3-0.1,0.5-0.3,0.6c-0.2,0.2-0.4,0.2-0.7,0.2h-1.8c0,0.4,0.2,0.7,0.4,1C83.6,41.2,83.9,41.3,84.3,41.3z M84.4,38.2
		c-0.4,0-0.7,0.1-1,0.4c-0.3,0.3-0.4,0.6-0.4,1.1h1.8c0.2,0,0.4-0.1,0.5-0.2c0.1-0.1,0.2-0.3,0.2-0.5c0-0.3-0.1-0.5-0.3-0.6
		C84.9,38.2,84.7,38.2,84.4,38.2z"/>
	<path class="st2" d="M88.7,37.9c0.3,0,0.6,0.1,0.8,0.3c0.2,0.2,0.3,0.5,0.3,0.8v2.5h-0.3V39c0-0.6-0.3-0.8-0.8-0.8
		c-0.5,0-1,0.2-1.5,0.7v2.5h-0.3V38h0.3v0.6C87.6,38.2,88.2,37.9,88.7,37.9z"/>
	<path class="st2" d="M92.5,41.5c-0.5,0-0.9-0.2-1.2-0.5c-0.3-0.3-0.5-0.8-0.5-1.3c0-0.5,0.1-1,0.4-1.3s0.7-0.5,1.2-0.5
		c0.7,0,1.1,0.3,1.4,0.8l-0.2,0.1c-0.2-0.4-0.6-0.7-1.1-0.7c-0.4,0-0.8,0.1-1,0.4c-0.3,0.3-0.4,0.7-0.4,1.1c0,0.5,0.1,0.9,0.4,1.2
		c0.2,0.3,0.6,0.4,1,0.4c0.5,0,1-0.2,1.2-0.7l0.2,0.1c-0.1,0.2-0.3,0.4-0.5,0.6C93.1,41.5,92.8,41.5,92.5,41.5z"/>
	<path class="st2" d="M95.2,37.4c-0.1,0-0.1,0-0.2-0.1c0-0.1-0.1-0.1-0.1-0.2c0-0.1,0-0.1,0.1-0.2c0,0,0.1-0.1,0.2-0.1
		c0.1,0,0.1,0,0.2,0.1s0.1,0.1,0.1,0.2c0,0.1,0,0.1-0.1,0.2S95.3,37.4,95.2,37.4z M95,41.5V38h0.3v3.4H95z"/>
	<path class="st2" d="M97.9,37.9c0.4,0,0.8,0.1,1,0.4s0.4,0.6,0.4,1v2.2H99v-0.8c-0.1,0.3-0.3,0.5-0.5,0.6c-0.2,0.2-0.5,0.2-0.8,0.2
		c-0.3,0-0.6-0.1-0.9-0.3c-0.2-0.2-0.3-0.5-0.3-0.8c0-0.4,0.1-0.7,0.4-0.8s0.7-0.3,1.2-0.3c0.3,0,0.6,0,0.8,0.1v-0.1
		c0-0.4-0.1-0.7-0.3-0.8c-0.2-0.2-0.5-0.3-0.8-0.3c-0.4,0-0.8,0.1-1.1,0.4l-0.2-0.2C97,38.1,97.4,37.9,97.9,37.9z M97.7,41.3
		c0.4,0,0.7-0.1,1-0.4c0.2-0.3,0.4-0.6,0.4-1.1v-0.2c-0.3,0-0.5-0.1-0.8-0.1c-0.9,0-1.4,0.3-1.4,0.9c0,0.2,0.1,0.4,0.3,0.6
		C97.2,41.2,97.4,41.3,97.7,41.3z"/>
	<path class="st2" d="M104.9,36.5h0.3v4.9h-0.3v-0.6c-0.3,0.4-0.8,0.7-1.3,0.7c-0.4,0-0.8-0.2-1-0.5c-0.3-0.3-0.4-0.7-0.4-1.3
		c0-0.6,0.1-1,0.4-1.4c0.3-0.3,0.7-0.5,1.1-0.5c0.5,0,0.9,0.2,1.2,0.6V36.5z M103.7,41.3c0.5,0,0.9-0.2,1.2-0.7v-1.7
		c-0.1-0.2-0.3-0.4-0.5-0.5c-0.2-0.1-0.4-0.2-0.7-0.2c-0.4,0-0.7,0.1-0.9,0.4s-0.3,0.7-0.3,1.2c0,0.5,0.1,0.8,0.3,1.1
		C103,41.2,103.3,41.3,103.7,41.3z"/>
	<path class="st2" d="M106.7,37.4c-0.1,0-0.1,0-0.2-0.1c0-0.1-0.1-0.1-0.1-0.2c0-0.1,0-0.1,0.1-0.2c0,0,0.1-0.1,0.2-0.1
		c0.1,0,0.1,0,0.2,0.1s0.1,0.1,0.1,0.2c0,0.1,0,0.1-0.1,0.2S106.8,37.4,106.7,37.4z M106.6,41.5V38h0.3v3.4H106.6z"/>
	<path class="st2" d="M110.6,41.1c0.4,0.1,0.5,0.4,0.5,0.7c0,0.3-0.1,0.6-0.4,0.7c-0.3,0.2-0.7,0.2-1.2,0.2c-0.4,0-0.8-0.1-1.1-0.2
		c-0.3-0.2-0.4-0.4-0.4-0.7c0-0.4,0.2-0.7,0.6-0.9c-0.2-0.1-0.3-0.3-0.3-0.5c0-0.2,0.1-0.4,0.4-0.5c-0.3-0.2-0.5-0.5-0.5-0.9
		c0-0.4,0.1-0.6,0.4-0.8c0.2-0.2,0.6-0.3,1-0.3c0.4,0,0.6,0.1,0.9,0.2c0.2-0.1,0.4-0.2,0.6-0.4l0.2,0.2c-0.1,0.2-0.3,0.3-0.5,0.4
		c0.2,0.2,0.3,0.4,0.3,0.8c0,0.3-0.1,0.6-0.4,0.8c-0.2,0.2-0.6,0.3-1,0.3c-0.2,0-0.5,0-0.7-0.1c-0.2,0.1-0.3,0.2-0.3,0.4
		c0,0.1,0,0.1,0,0.2c0,0,0.1,0.1,0.1,0.1s0.1,0.1,0.1,0.1c0,0,0.1,0,0.2,0.1c0.1,0,0.2,0,0.2,0c0,0,0.1,0,0.3,0c0.1,0,0.2,0,0.3,0
		s0.2,0,0.3,0c0.1,0,0.1,0,0.2,0C110.5,41.1,110.5,41.1,110.6,41.1z M109.5,42.6c0.9,0,1.3-0.2,1.3-0.7c0-0.1,0-0.2-0.1-0.3
		c0-0.1-0.1-0.1-0.2-0.2c-0.1,0-0.2-0.1-0.3-0.1s-0.2-0.1-0.3-0.1c-0.1,0-0.2,0-0.4,0c0,0,0,0-0.1,0c-0.4,0-0.6-0.1-0.7-0.1
		c-0.2,0.1-0.3,0.2-0.4,0.3c-0.1,0.1-0.2,0.3-0.2,0.4c0,0.3,0.1,0.4,0.4,0.6C108.9,42.5,109.2,42.6,109.5,42.6z M108.4,39.1
		c0,0.3,0.1,0.5,0.3,0.7c0.2,0.2,0.5,0.2,0.8,0.2c0.3,0,0.6-0.1,0.8-0.2c0.2-0.2,0.3-0.4,0.3-0.7c0-0.3-0.1-0.5-0.3-0.7
		c-0.2-0.2-0.5-0.2-0.8-0.2c-0.3,0-0.6,0.1-0.8,0.2C108.5,38.6,108.4,38.8,108.4,39.1z"/>
	<path class="st2" d="M112.4,37.4c-0.1,0-0.1,0-0.2-0.1c0-0.1-0.1-0.1-0.1-0.2c0-0.1,0-0.1,0.1-0.2c0,0,0.1-0.1,0.2-0.1
		c0.1,0,0.1,0,0.2,0.1s0.1,0.1,0.1,0.2c0,0.1,0,0.1-0.1,0.2S112.5,37.4,112.4,37.4z M112.2,41.5V38h0.3v3.4H112.2z"/>
	<path class="st2" d="M115.9,41l0.1,0.2c-0.3,0.2-0.6,0.3-0.9,0.3c-0.3,0-0.6-0.1-0.8-0.3s-0.3-0.5-0.3-0.9v-2.1h-0.6V38h0.6v-1.1
		h0.3V38h1.5v0.2h-1.5v2.1c0,0.6,0.3,0.9,0.8,0.9C115.4,41.3,115.7,41.2,115.9,41z"/>
	<path class="st2" d="M118.1,37.9c0.4,0,0.8,0.1,1,0.4s0.4,0.6,0.4,1v2.2h-0.3v-0.8c-0.1,0.3-0.3,0.5-0.5,0.6
		c-0.2,0.2-0.5,0.2-0.8,0.2c-0.3,0-0.6-0.1-0.9-0.3c-0.2-0.2-0.3-0.5-0.3-0.8c0-0.4,0.1-0.7,0.4-0.8s0.7-0.3,1.2-0.3
		c0.3,0,0.6,0,0.8,0.1v-0.1c0-0.4-0.1-0.7-0.3-0.8c-0.2-0.2-0.5-0.3-0.8-0.3c-0.4,0-0.8,0.1-1.1,0.4l-0.2-0.2
		C117.2,38.1,117.6,37.9,118.1,37.9z M117.8,41.3c0.4,0,0.7-0.1,1-0.4c0.2-0.3,0.4-0.6,0.4-1.1v-0.2c-0.3,0-0.5-0.1-0.8-0.1
		c-0.9,0-1.4,0.3-1.4,0.9c0,0.2,0.1,0.4,0.3,0.6C117.3,41.2,117.5,41.3,117.8,41.3z"/>
	<path class="st2" d="M120.7,41.5v-4.9h0.3v4.9H120.7z"/>
</g>
<g>
	<radialGradient id="SVGID_1_" cx="23.1045" cy="23.0794" r="19.0875" gradientUnits="userSpaceOnUse">
		<stop  offset="0.4755" style="stop-color:#F4B700"/>
		<stop  offset="1" style="stop-color:#FD5B00"/>
	</radialGradient>
	<path class="st3" d="M39.6,10.4C39.6,10.4,39.6,10.3,39.6,10.4c0-0.1,0-0.1,0-0.1c0,0,0,0,0-0.1c0,0,0,0,0-0.1c0,0,0,0,0-0.1
		c0,0,0,0-0.1,0c0,0,0,0,0,0l-13-8.2c-0.2-0.1-0.4-0.1-0.6,0l-19,10.7c0,0,0,0-0.1,0.1c0,0,0,0,0,0c0,0-0.1,0.1-0.1,0.1c0,0,0,0,0,0
		c0,0,0,0.1,0,0.1c0,0,0,0,0,0.1c0,0,0,0,0,0.1c0,0,0,0,0,0c0,0,0,0,0,0v18.5c0,0.2,0.1,0.3,0.2,0.4l18.9,12.4
		c0.1,0.1,0.2,0.1,0.3,0.1c0.1,0,0.2,0,0.3-0.1c0.2-0.1,0.3-0.3,0.3-0.5V27.6l12.3,8.8c0.1,0.1,0.2,0.1,0.3,0.1c0.1,0,0.2,0,0.2-0.1
		c0.2-0.1,0.3-0.3,0.3-0.5L39.6,10.4C39.6,10.4,39.6,10.4,39.6,10.4z M26.1,2.9l12,7.5l-12.3,7.1l0,0l-6.3,3.6L8.1,13L26.1,2.9z
		 M25.4,25.5l-5.1-3.6l5.1-2.9V25.5z M25.4,42.9L7.6,31.1V14l11.4,8.2c0,0,0,0,0,0l6.4,4.6V42.9z M26.5,26.2v-7.9l12-6.9v23.5
		L26.5,26.2z"/>
	<linearGradient id="SVGID_2_" gradientUnits="userSpaceOnUse" x1="23.5921" y1="39.9328" x2="6.3522" y2="13.1151">
		<stop  offset="0" style="stop-color:#F4B700"/>
		<stop  offset="1" style="stop-color:#FD5B00"/>
	</linearGradient>
	<polygon class="st4" points="7.6,14 25.4,26.8 25.4,42.9 7.6,31.1 	"/>
</g>
</svg>
