<?xml version="1.0" encoding="utf-8"?>
<!-- Generator: Adobe Illustrator 21.0.2, SVG Export Plug-In . SVG Version: 6.00 Build 0)  -->
<svg version="1.1" id="Capa_1" xmlns="http://www.w3.org/2000/svg" xmlns:xlink="http://www.w3.org/1999/xlink" x="0px" y="0px"
	 viewBox="0 0 89.8 89.8" style="enable-background:new 0 0 89.8 89.8;" xml:space="preserve">
<style type="text/css">
	.st0{fill:#FF6700;}
	.st1{fill:#F1F2F2;}
</style>
<g>
	<path class="st0" d="M89.8,44.9c0,24.8-20.1,44.9-44.9,44.9S0,69.7,0,44.9C0,20.1,20.1,0,44.9,0S89.8,20.1,89.8,44.9L89.8,44.9z
		 M89.8,44.9"/>
	<path class="st1" d="M71.7,48.5V67H61V49.7c0-4.3-1.5-7.3-5.4-7.3c-3,0-4.7,2-5.5,3.9C49.7,47,49.7,48,49.7,49v18H38.9
		c0,0,0.1-29.2,0-32.3h10.7v4.6c0,0-0.1,0.1-0.1,0.1h0.1v-0.1c1.4-2.2,4-5.3,9.7-5.3C66.4,34,71.7,38.6,71.7,48.5L71.7,48.5z
		 M27.7,19.2c-3.7,0-6.1,2.4-6.1,5.6c0,3.1,2.3,5.6,5.9,5.6h0.1c3.7,0,6.1-2.5,6.1-5.6C33.7,21.6,31.4,19.2,27.7,19.2L27.7,19.2z
		 M22.3,67H33V34.7H22.3V67z M22.3,67"/>
</g>
</svg>
