<?xml version="1.0" encoding="utf-8"?>
<!-- Generator: Adobe Illustrator 21.0.2, SVG Export Plug-In . SVG Version: 6.00 Build 0)  -->
<svg version="1.1" id="WhatsApp_Logo" xmlns="http://www.w3.org/2000/svg" xmlns:xlink="http://www.w3.org/1999/xlink" x="0px"
	 y="0px" viewBox="0 0 5212 5170.5" style="enable-background:new 0 0 5212 5170.5;" xml:space="preserve">
<style type="text/css">
	.st0{fill:#FF6700;}
	.st1{fill:#FFFFFF;}
</style>
<path class="st0" d="M5142.1,2439.7c-0.8-29.3-4.5-58.4-7.4-87.6c-3-29.9-6.7-59.8-10.2-89.7c-7-60.6-17.8-120.7-30.2-180.4
	c-44.4-212.8-115-416.6-212.8-610.9c-117.2-232.7-267.2-441.9-449.2-628.2c-171.8-175.9-364.7-324.2-579.6-443.8
	c-175.2-97.5-359.6-172.5-553-225.3c-80.2-21.8-161.1-39.9-243.2-53.2c-45.3-7.3-90.6-14.6-136.3-18.8
	c-45.7-4.2-91.4-9.1-137.2-12.8c-21.3-1.7-42.8-0.7-64.2-1.6c-10.1-0.4-20.8,1.1-29.8-5.5c-36.5,0-73,0-109.4,0
	c-5.2,1.5-10.3,3.9-15.6,4.5c-9.4,1.1-19,1.1-28.5,1.6c-38,1.8-76,2.6-113.9,5.7c-37,3-74,7.8-110.8,12.8
	c-45.4,6.2-91,12.2-136,20.5c-103.6,19.2-205.6,44.7-305.8,77.1c-372,120.3-699,316.3-980.1,587.9
	c-252,243.4-445.1,527.4-579.1,851.3c-60.1,145.3-105.9,295.1-137.4,449.2c-12.7,62.1-23.1,124.6-31.5,187.4
	c-5,37.7-7.5,75.7-11.1,113.5c-8.7,90.9-10.5,182-8.1,273.2c1.1,43.5,4.4,87.1,7.7,130.5c2.9,38.7,6.3,77.4,11.1,115.9
	c5.6,44,12.1,87.9,19.9,131.5c20.8,116.3,49.7,230.6,86.7,342.9c50.5,153.2,115.4,300.1,194,441c16.7,30,17.5,21.5,7.6,57.7
	c-59.1,216.2-118.4,432.3-177.6,648.4c-55.6,203.2-111.3,406.3-166.9,609.5c-0.6,2.2-0.9,4.6-1.3,7c6.3,4.5,12.3,1.7,18.1,0.2
	c97.2-25.5,194.3-51.1,291.4-76.6c185.1-48.6,370.3-97,555.4-145.6c146.1-38.3,292.3-76.4,438.3-115.3c17.3-4.6,31.5-3.2,47.4,5.3
	c161.8,86.9,331.4,154.3,508.4,203.3c82.4,22.8,165.6,41.7,250,55.4c43.7,7.1,87.4,14.4,131.5,18.6c43.3,4.2,86.6,8.6,129.9,13
	c0.8,0.1,1.6,0.1,2.4,0.1c69.7,1.3,139.4,7.5,209.2,4.4c44.3-1.9,88.6-4.9,132.8-7.7c26.9-1.7,53.8-3.4,80.5-6.1
	c28.3-2.8,56.7-6.1,84.8-10.3c34.4-5.1,68.6-11.5,102.9-17.3c80.4-13.6,159.6-32.7,237.9-55.2c346.2-99.6,656.8-266,931.7-498.7
	c256.7-217.4,462-476,616-775.2c99.1-192.7,171.3-395.1,217.9-606.6c15-68,27-136.7,35.6-205.9c5.5-44.8,10.2-89.7,14.2-134.7
	c3-33.3,3.1-66.5,3.6-99.8c0.4-26.2,1.7-52.3,1.5-78.5C5144.1,2558.6,5143.8,2499.1,5142.1,2439.7z M1937.1,2428
	c3.4,9,7.9,17.8,12.9,26.1c95.7,161,207.4,309.7,342.5,439.9c159.3,153.6,340.6,274.4,544.1,361.8c24.3,10.4,48.4,21.4,72.5,32.4
	c16.1,7.3,32.6,12.9,49.8,17.4c26.2,6.7,49.1,0.3,70.4-13.8c10.2-6.7,19.5-15.4,27.5-24.6c71.1-82.1,141.6-164.9,206.4-252.2
	c7.4-9.9,14.1-20.3,21.4-30.3c31.3-42.3,59-51.4,110.9-38.6c25.5,6.3,50.4,16.4,74.3,27.5c84.9,39.2,169.5,79.1,253.8,119.7
	c82.7,39.8,164.9,80.6,247.2,121.2c15,7.4,29.6,15.7,44.1,24.1c24.9,14.5,36.9,35.9,38,65.2c2.1,55.9-1.4,111.3-13.9,165.8
	c-8.3,36.1-18.5,71.7-28.5,107.4c-12.5,44.2-36,82.3-66.2,116.5c-36.5,41.3-78.4,76.4-123.9,107.2
	c-74.2,50.3-153.1,91.2-239.3,116.8c-24.5,7.3-49.5,12.2-75.1,14.4c-27.2,2.3-54.3,7-81.5,8.4c-43.2,2.4-86.5,3.8-129.6-1.4
	c-19.2-2.3-38.6-4.2-57.8-6.4c-55.4-6.4-108.9-20.9-161.9-37.7c-136.3-43.2-270.4-92.4-401-150.5c-156.4-69.6-301.1-159-437.5-262.2
	c-164-124.1-312.3-265.1-449.2-418.4c-97.8-109.5-188.7-224.4-272.4-345.1c-32.7-47.2-66.7-93.5-97.4-142
	c-69.7-110.1-126.3-226.6-163.7-351.8c-25.7-85.9-40.9-173.4-39.6-263.4c2.8-197.4,65.1-372.3,198.3-520
	c19.5-21.6,39.2-43.2,59.8-63.7c39.4-39.3,87.4-62.1,142-71.2c7.8-1.3,15.8-1.1,23.8-1.1c26.5-0.1,53,0,79.5,0c0-0.2,0-0.4,0-0.6
	c29.1,1.1,58.2,2.9,87.4,3c38.8,0.1,67.4,17.7,89.4,48.3c16.1,22.4,28.2,46.8,38.6,72.2c52.8,128.1,105.4,256.3,158.5,384.3
	c19.6,47.3,40.1,94.2,60.3,141.2c7.7,18,13.7,36.1,14,56.1c0.3,19.9-3.5,38.4-11.8,56.4c-22.4,48.3-48.6,93.8-84.2,134.1
	c-35.1,39.7-66.8,82.3-104.7,119.6c-6.9,6.8-12.7,14.7-18.3,22.6C1927.6,2369.1,1926,2398,1937.1,2428z"/>
<path class="st1" d="M1717.5,1316.6c29.1,1.1,58.2,2.9,87.4,3c38.8,0.1,67.4,17.7,89.4,48.3c16.1,22.4,28.2,46.8,38.6,72.2
	c52.8,128.1,105.4,256.3,158.5,384.3c19.6,47.3,40.1,94.2,60.3,141.2c7.7,17.9,13.7,36.1,14,56.1c0.3,19.9-3.5,38.4-11.8,56.4
	c-22.4,48.3-48.6,93.8-84.2,134.1c-35.1,39.7-66.8,82.3-104.7,119.5c-6.9,6.8-12.7,14.7-18.3,22.6c-19.1,26.7-20.7,55.6-9.5,85.6
	c3.4,9,7.9,17.8,12.9,26.1c95.7,161,207.4,309.7,342.5,439.9c159.3,153.6,340.6,274.4,544.1,361.8c24.3,10.4,48.4,21.4,72.5,32.4
	c16.1,7.3,32.6,12.9,49.8,17.4c26.2,6.7,49.1,0.3,70.4-13.8c10.2-6.7,19.5-15.4,27.5-24.6c71.1-82.1,141.6-164.9,206.4-252.2
	c7.4-9.9,14.1-20.3,21.4-30.3c31.3-42.3,59-51.4,110.9-38.6c25.5,6.3,50.4,16.4,74.3,27.5c84.9,39.2,169.5,79.1,253.8,119.7
	c82.7,39.8,164.9,80.6,247.2,121.2c15,7.4,29.6,15.7,44.1,24.1c24.9,14.5,36.9,35.9,38,65.2c2.1,55.9-1.4,111.3-13.9,165.8
	c-8.3,36.1-18.5,71.7-28.5,107.4c-12.5,44.2-36,82.3-66.2,116.5c-36.5,41.3-78.4,76.4-123.9,107.2
	c-74.2,50.3-153.1,91.2-239.3,116.8c-24.6,7.3-49.5,12.2-75.1,14.4c-27.2,2.3-54.3,7-81.5,8.4c-43.2,2.4-86.5,3.8-129.6-1.4
	c-19.2-2.3-38.6-4.2-57.8-6.4c-55.4-6.4-108.9-20.9-161.9-37.7c-136.3-43.2-270.4-92.4-401-150.5c-156.4-69.6-301.1-159-437.5-262.2
	c-164-124.1-312.3-265.1-449.2-418.4c-97.8-109.5-188.7-224.4-272.4-345.1c-32.7-47.2-66.7-93.5-97.4-142
	c-69.7-110.1-126.3-226.6-163.7-351.8c-25.7-85.9-40.9-173.4-39.6-263.4c2.8-197.4,65.1-372.3,198.3-520
	c19.5-21.6,39.2-43.2,59.8-63.7c39.4-39.3,87.4-62.1,142-71.2c7.8-1.3,15.8-1.1,23.8-1.1c26.5-0.1,53,0,79.5,0
	C1717.5,1317,1717.5,1316.8,1717.5,1316.6z"/>
</svg>
