<?xml version="1.0" encoding="utf-8"?>
<!-- Generator: Adobe Illustrator 21.0.2, SVG Export Plug-In . SVG Version: 6.00 Build 0)  -->
<svg version="1.1" id="Capa_1" xmlns="http://www.w3.org/2000/svg" xmlns:xlink="http://www.w3.org/1999/xlink" x="0px" y="0px"
	 viewBox="0 0 89.8 89.8" style="enable-background:new 0 0 89.8 89.8;" xml:space="preserve">
<style type="text/css">
	.st0{fill:#FF6700;}
	.st1{fill:#FFFFFF;}
</style>
<path class="st0" d="M89.8,44.9c0,24.8-20.1,44.9-44.9,44.9S0,69.7,0,44.9C0,20.1,20.1,0,44.9,0S89.8,20.1,89.8,44.9L89.8,44.9z
	 M89.8,44.9"/>
<path class="st1" d="M56.2,46.6h-8V76H36V46.6h-5.8V36.3H36v-6.7c0-4.8,2.3-12.2,12.2-12.2l9,0v10h-6.5c-1.1,0-2.6,0.5-2.6,2.8v6.1
	h9.1L56.2,46.6z M56.2,46.6"/>
</svg>
