<?xml version="1.0" encoding="utf-8"?>
<!-- Generator: Adobe Illustrator 21.0.2, SVG Export Plug-In . SVG Version: 6.00 Build 0)  -->
<svg version="1.1" id="WhatsApp_Logo" xmlns="http://www.w3.org/2000/svg" xmlns:xlink="http://www.w3.org/1999/xlink" x="0px"
	 y="0px" viewBox="0 0 1075.4 1066.9" style="enable-background:new 0 0 1075.4 1066.9;" xml:space="preserve">
<style type="text/css">
	.st0{fill-rule:evenodd;clip-rule:evenodd;fill:#F9700B;}
</style>
<g id="WA_Logo">
	<g>
		<path class="st0" d="M898.7,172.2c-95.9-96-223.5-148.9-359.4-149c-280,0-507.9,227.9-508,508c0,89.5,23.4,176.9,67.8,254
			l-72.1,263.2l269.3-70.6c74.2,40.5,157.7,61.8,242.8,61.8h0.2c0,0,0,0,0,0c280,0,507.9-227.9,508-508
			C1047.4,395.9,994.7,268.3,898.7,172.2z M539.4,953.8h-0.2c-75.8,0-150.1-20.4-214.9-58.9l-15.4-9.2l-159.8,41.9l42.7-155.8
			l-10-16c-42.3-67.2-64.6-144.9-64.6-224.7c0.1-232.8,189.5-422.2,422.4-422.2c112.8,0,218.8,44,298.5,123.8
			c79.7,79.8,123.6,185.9,123.6,298.7C961.5,764.4,772.1,953.8,539.4,953.8z M771,637.6c-12.7-6.4-75.1-37.1-86.7-41.3
			c-11.6-4.2-20.1-6.4-28.6,6.4c-8.5,12.7-32.8,41.3-40.2,49.8c-7.4,8.5-14.8,9.5-27.5,3.2c-12.7-6.4-53.6-19.8-102.1-63
			c-37.7-33.7-63.2-75.2-70.6-87.9c-7.4-12.7-0.8-19.6,5.6-25.9c5.7-5.7,12.7-14.8,19-22.2c6.3-7.4,8.5-12.7,12.7-21.2
			c4.2-8.5,2.1-15.9-1.1-22.2c-3.2-6.4-28.6-68.8-39.1-94.3c-10.3-24.7-20.8-21.4-28.6-21.8c-7.4-0.4-15.9-0.4-24.3-0.4
			c-8.5,0-22.2,3.2-33.8,15.9c-11.6,12.7-44.4,43.4-44.4,105.9c0,62.5,45.5,122.8,51.8,131.3c6.3,8.5,89.5,136.7,216.8,191.7
			c30.3,13.1,53.9,20.9,72.4,26.7c30.4,9.7,58.1,8.3,80,5c24.4-3.6,75.1-30.7,85.7-60.4c10.6-29.7,10.6-55.1,7.4-60.4
			C792.1,647.1,783.7,644,771,637.6z"/>
	</g>
</g>
</svg>
